<mxfile host="drawio-plugin" modified="2023-09-25T15:14:47.545Z" agent="5.0 (Windows NT 10.0; Win64; x64) AppleWebKit/537.36 (KHTML, like Gecko) Chrome/111.0.0.0 Safari/537.36" etag="4rQc049m26ckLgfpJ8hP" version="20.5.3" type="embed"><diagram id="AhuLkZam904w_K5VIP9X" name="Architecture"><mxGraphModel dx="3106" dy="1140" grid="0" gridSize="10" guides="1" tooltips="1" connect="1" arrows="1" fold="1" page="1" pageScale="1" pageWidth="850" pageHeight="1100" math="0" shadow="0"><root><mxCell id="0"/><mxCell id="1" parent="0"/><object label="&lt;font color=&quot;#ffffff&quot;&gt;&lt;b&gt;File Notification Service&lt;/b&gt;&lt;/font&gt;" placeholders="1" id="qgATBkY-sKVrwg3XVjlX-3"><mxCell style="rounded=1;whiteSpace=wrap;html=1;fontSize=16;fillColor=#438DD5;strokeColor=#000000;" parent="1" vertex="1"><mxGeometry x="-212" y="699" width="170" height="75" as="geometry"/></mxCell></object><object label="&lt;font color=&quot;#ffffff&quot;&gt;&lt;b&gt;Message Bus Kafka&lt;/b&gt;&lt;/font&gt;" placeholders="1" id="qgATBkY-sKVrwg3XVjlX-4"><mxCell style="rounded=1;whiteSpace=wrap;html=1;fontSize=16;fillColor=#438DD5;strokeColor=#000000;" parent="1" vertex="1"><mxGeometry x="81" y="699" width="170" height="75" as="geometry"/></mxCell></object><object label="&lt;b style=&quot;border-color: var(--border-color); color: rgb(255, 255, 255);&quot;&gt;PM Server&lt;/b&gt;" placeholders="1" id="qgATBkY-sKVrwg3XVjlX-10"><mxCell style="rounded=1;whiteSpace=wrap;html=1;fontSize=16;fillColor=#438DD5;strokeColor=#000000;" parent="1" vertex="1"><mxGeometry x="355" y="704" width="170" height="75" as="geometry"/></mxCell></object><object label="&lt;font color=&quot;#ffffff&quot;&gt;&lt;b&gt;Message Bus Kafka&lt;/b&gt;&lt;/font&gt;" placeholders="1" id="qgATBkY-sKVrwg3XVjlX-14"><mxCell style="rounded=1;whiteSpace=wrap;html=1;fontSize=16;fillColor=#438DD5;strokeColor=#000000;" parent="1" vertex="1"><mxGeometry x="1484" y="699" width="170" height="75" as="geometry"/></mxCell></object><object label="&lt;font color=&quot;#ffffff&quot;&gt;&lt;b&gt;Schema Registry&lt;/b&gt;&lt;/font&gt;" placeholders="1" id="qgATBkY-sKVrwg3XVjlX-15"><mxCell style="rounded=1;whiteSpace=wrap;html=1;fontSize=16;fillColor=#438DD5;strokeColor=#000000;" parent="1" vertex="1"><mxGeometry x="1280" y="699" width="170" height="75" as="geometry"/></mxCell></object><object label="&lt;font color=&quot;#ffffff&quot;&gt;&lt;b&gt;5G Event Consumer&lt;/b&gt;&lt;/font&gt;" placeholders="1" id="qgATBkY-sKVrwg3XVjlX-16"><mxCell style="rounded=1;whiteSpace=wrap;html=1;fontSize=16;fillColor=#438DD5;strokeColor=#000000;" parent="1" vertex="1"><mxGeometry x="1398" y="839" width="170" height="75" as="geometry"/></mxCell></object><mxCell id="qgATBkY-sKVrwg3XVjlX-26" value="" style="endArrow=block;dashed=1;html=1;dashPattern=1 4;strokeWidth=2;rounded=0;fontSize=12;startSize=8;endSize=8;curved=1;startArrow=block;startFill=1;endFill=1;entryX=0;entryY=0.5;entryDx=0;entryDy=0;exitX=1;exitY=0.5;exitDx=0;exitDy=0;" parent="1" source="qgATBkY-sKVrwg3XVjlX-3" target="qgATBkY-sKVrwg3XVjlX-4" edge="1"><mxGeometry width="50" height="50" relative="1" as="geometry"><mxPoint x="-51" y="757" as="sourcePoint"/><mxPoint x="78" y="742" as="targetPoint"/></mxGeometry></mxCell><object label="&lt;b style=&quot;border-color: var(--border-color); color: rgb(255, 255, 255);&quot;&gt;&lt;font style=&quot;font-size: 26px;&quot;&gt;Service Mesh&lt;/font&gt;&lt;/b&gt;" placeholders="1" id="qgATBkY-sKVrwg3XVjlX-37"><mxCell style="rounded=1;whiteSpace=wrap;html=1;fontSize=16;fillColor=#438DD5;strokeColor=#000000;" parent="1" vertex="1"><mxGeometry x="362.25" y="505" width="1069.5" height="75" as="geometry"/></mxCell></object><object label="&lt;b style=&quot;border-color: var(--border-color); color: rgb(255, 255, 255);&quot;&gt;Connected Systems&lt;/b&gt;" placeholders="1" id="qgATBkY-sKVrwg3XVjlX-40"><mxCell style="rounded=1;whiteSpace=wrap;html=1;fontSize=16;fillColor=#438DD5;strokeColor=#000000;" parent="1" vertex="1"><mxGeometry x="575" y="699" width="170" height="75" as="geometry"/></mxCell></object><object label="&lt;font color=&quot;#ffffff&quot;&gt;&lt;b&gt;Data Catalog&lt;/b&gt;&lt;/font&gt;" placeholders="1" id="qgATBkY-sKVrwg3XVjlX-41"><mxCell style="rounded=1;whiteSpace=wrap;html=1;fontSize=16;fillColor=#438DD5;strokeColor=#000000;" parent="1" vertex="1"><mxGeometry x="1033" y="699" width="170" height="75" as="geometry"/></mxCell></object><object label="&lt;font color=&quot;#ffffff&quot;&gt;&lt;b&gt;ENM Scripting VMs&lt;/b&gt;&lt;/font&gt;" placeholders="1" id="qgATBkY-sKVrwg3XVjlX-42"><mxCell style="rounded=1;whiteSpace=wrap;html=1;fontSize=16;fillColor=#438DD5;strokeColor=#000000;" parent="1" vertex="1"><mxGeometry x="799" y="699" width="170" height="75" as="geometry"/></mxCell></object><mxCell id="qgATBkY-sKVrwg3XVjlX-44" style="edgeStyle=none;curved=1;rounded=0;orthogonalLoop=1;jettySize=auto;html=1;entryX=0;entryY=1;entryDx=0;entryDy=0;fontSize=12;startSize=8;endSize=8;dashed=1;dashPattern=1 4;startArrow=block;startFill=1;strokeWidth=2;" parent="1" source="qgATBkY-sKVrwg3XVjlX-4" target="qgATBkY-sKVrwg3XVjlX-37" edge="1"><mxGeometry relative="1" as="geometry"/></mxCell><mxCell id="qgATBkY-sKVrwg3XVjlX-45" style="edgeStyle=none;curved=1;rounded=0;orthogonalLoop=1;jettySize=auto;html=1;entryX=0.079;entryY=1.101;entryDx=0;entryDy=0;entryPerimeter=0;fontSize=12;startSize=8;endSize=8;dashed=1;dashPattern=1 4;startArrow=block;startFill=1;strokeWidth=2;" parent="1" source="qgATBkY-sKVrwg3XVjlX-10" target="qgATBkY-sKVrwg3XVjlX-37" edge="1"><mxGeometry relative="1" as="geometry"/></mxCell><mxCell id="qgATBkY-sKVrwg3XVjlX-50" style="edgeStyle=none;curved=1;rounded=0;orthogonalLoop=1;jettySize=auto;html=1;entryX=1;entryY=1;entryDx=0;entryDy=0;fontSize=12;startSize=8;endSize=8;dashed=1;dashPattern=1 4;startArrow=block;startFill=1;strokeWidth=2;" parent="1" source="qgATBkY-sKVrwg3XVjlX-14" target="qgATBkY-sKVrwg3XVjlX-37" edge="1"><mxGeometry relative="1" as="geometry"/></mxCell><mxCell id="qgATBkY-sKVrwg3XVjlX-54" style="edgeStyle=none;curved=1;rounded=0;orthogonalLoop=1;jettySize=auto;html=1;entryX=0.542;entryY=0.02;entryDx=0;entryDy=0;entryPerimeter=0;fontSize=12;startSize=8;endSize=8;dashed=1;dashPattern=1 4;startArrow=block;startFill=1;strokeWidth=2;" parent="1" source="qgATBkY-sKVrwg3XVjlX-14" target="qgATBkY-sKVrwg3XVjlX-16" edge="1"><mxGeometry relative="1" as="geometry"/></mxCell><mxCell id="qgATBkY-sKVrwg3XVjlX-49" style="edgeStyle=none;curved=1;rounded=0;orthogonalLoop=1;jettySize=auto;html=1;entryX=0.911;entryY=1.013;entryDx=0;entryDy=0;entryPerimeter=0;fontSize=12;startSize=8;endSize=8;dashed=1;dashPattern=1 4;startArrow=block;startFill=1;strokeWidth=2;" parent="1" source="qgATBkY-sKVrwg3XVjlX-15" target="qgATBkY-sKVrwg3XVjlX-37" edge="1"><mxGeometry relative="1" as="geometry"/></mxCell><mxCell id="qgATBkY-sKVrwg3XVjlX-53" style="edgeStyle=none;curved=1;rounded=0;orthogonalLoop=1;jettySize=auto;html=1;entryX=0.432;entryY=0.061;entryDx=0;entryDy=0;entryPerimeter=0;fontSize=12;startSize=8;endSize=8;dashed=1;dashPattern=1 4;startArrow=block;startFill=1;strokeWidth=2;" parent="1" source="qgATBkY-sKVrwg3XVjlX-15" target="qgATBkY-sKVrwg3XVjlX-16" edge="1"><mxGeometry relative="1" as="geometry"/></mxCell><mxCell id="qgATBkY-sKVrwg3XVjlX-46" style="edgeStyle=none;curved=1;rounded=0;orthogonalLoop=1;jettySize=auto;html=1;entryX=0.275;entryY=0.983;entryDx=0;entryDy=0;entryPerimeter=0;fontSize=12;startSize=8;endSize=8;dashed=1;dashPattern=1 4;startArrow=block;startFill=1;strokeWidth=2;" parent="1" source="qgATBkY-sKVrwg3XVjlX-40" target="qgATBkY-sKVrwg3XVjlX-37" edge="1"><mxGeometry relative="1" as="geometry"/></mxCell><mxCell id="qgATBkY-sKVrwg3XVjlX-48" style="edgeStyle=none;curved=1;rounded=0;orthogonalLoop=1;jettySize=auto;html=1;entryX=0.706;entryY=1.013;entryDx=0;entryDy=0;entryPerimeter=0;fontSize=12;startSize=8;endSize=8;dashed=1;dashPattern=1 4;startArrow=block;startFill=1;strokeWidth=2;" parent="1" source="qgATBkY-sKVrwg3XVjlX-41" target="qgATBkY-sKVrwg3XVjlX-37" edge="1"><mxGeometry relative="1" as="geometry"/></mxCell><mxCell id="qgATBkY-sKVrwg3XVjlX-47" style="edgeStyle=none;curved=1;rounded=0;orthogonalLoop=1;jettySize=auto;html=1;entryX=0.488;entryY=0.984;entryDx=0;entryDy=0;entryPerimeter=0;fontSize=12;startSize=8;endSize=8;dashed=1;dashPattern=1 4;startArrow=block;startFill=1;strokeWidth=2;" parent="1" source="qgATBkY-sKVrwg3XVjlX-42" target="qgATBkY-sKVrwg3XVjlX-37" edge="1"><mxGeometry relative="1" as="geometry"/></mxCell><mxCell id="CFn1Eid2a59iK5gldfQt-3" value="" style="group" parent="1" vertex="1" connectable="0"><mxGeometry x="545" y="102" width="702" height="358" as="geometry"/></mxCell><object label="" placeholders="1" id="qgATBkY-sKVrwg3XVjlX-32"><mxCell style="rounded=1;whiteSpace=wrap;html=1;fontSize=16;fillColor=#e9f0fb;strokeColor=#000000;gradientColor=none;align=left;" parent="CFn1Eid2a59iK5gldfQt-3" vertex="1"><mxGeometry width="702" height="358" as="geometry"/></mxCell></object><object label="&lt;font color=&quot;#ffffff&quot;&gt;&lt;b&gt;InputTopic Listener&lt;/b&gt;&lt;/font&gt;" placeholders="1" id="qgATBkY-sKVrwg3XVjlX-5"><mxCell style="rounded=1;whiteSpace=wrap;html=1;fontSize=16;fillColor=#438DD5;strokeColor=#000000;" parent="CFn1Eid2a59iK5gldfQt-3" vertex="1"><mxGeometry x="34" y="141" width="170" height="75" as="geometry"/></mxCell></object><object label="&lt;font color=&quot;#ffffff&quot;&gt;&lt;b&gt;OutputTopic Service&lt;/b&gt;&lt;/font&gt;" placeholders="1" id="qgATBkY-sKVrwg3XVjlX-6"><mxCell style="rounded=1;whiteSpace=wrap;html=1;fontSize=16;fillColor=#438DD5;strokeColor=#000000;" parent="CFn1Eid2a59iK5gldfQt-3" vertex="1"><mxGeometry x="478" y="141" width="170" height="75" as="geometry"/></mxCell></object><object label="&lt;font color=&quot;#ffffff&quot;&gt;&lt;b&gt;Connected Systems Service&lt;/b&gt;&lt;/font&gt;" placeholders="1" id="qgATBkY-sKVrwg3XVjlX-7"><mxCell style="rounded=1;whiteSpace=wrap;html=1;fontSize=16;fillColor=#438DD5;strokeColor=#000000;" parent="CFn1Eid2a59iK5gldfQt-3" vertex="1"><mxGeometry x="34" y="254" width="170" height="75" as="geometry"/></mxCell></object><object label="&lt;font color=&quot;#ffffff&quot;&gt;&lt;b&gt;SFTP Service&lt;/b&gt;&lt;/font&gt;" placeholders="1" id="qgATBkY-sKVrwg3XVjlX-8"><mxCell style="rounded=1;whiteSpace=wrap;html=1;fontSize=16;fillColor=#438DD5;strokeColor=#000000;" parent="CFn1Eid2a59iK5gldfQt-3" vertex="1"><mxGeometry x="254" y="254" width="170" height="75" as="geometry"/></mxCell></object><object label="&lt;font color=&quot;#ffffff&quot;&gt;&lt;b&gt;Data Catalog Service&lt;/b&gt;&lt;/font&gt;" placeholders="1" id="qgATBkY-sKVrwg3XVjlX-9"><mxCell style="rounded=1;whiteSpace=wrap;html=1;fontSize=16;fillColor=#438DD5;strokeColor=#000000;" parent="CFn1Eid2a59iK5gldfQt-3" vertex="1"><mxGeometry x="478" y="254" width="170" height="75" as="geometry"/></mxCell></object><mxCell id="qgATBkY-sKVrwg3XVjlX-33" value="&lt;b&gt;5G PM Event File Transfer and Processing Service&lt;/b&gt;" style="text;html=1;align=center;verticalAlign=middle;resizable=0;points=[];autosize=1;strokeColor=none;fillColor=none;fontSize=16;" parent="CFn1Eid2a59iK5gldfQt-3" vertex="1"><mxGeometry x="34" y="10" width="400" height="31" as="geometry"/></mxCell><object label="&lt;font color=&quot;#ffffff&quot;&gt;&lt;b&gt;Subscription InputTopic Listener&lt;/b&gt;&lt;/font&gt;" placeholders="1" id="18"><mxCell style="rounded=1;whiteSpace=wrap;html=1;fontSize=16;fillColor=#438DD5;strokeColor=#000000;" parent="CFn1Eid2a59iK5gldfQt-3" vertex="1"><mxGeometry x="35" y="41" width="170" height="75" as="geometry"/></mxCell></object><mxCell id="qgATBkY-sKVrwg3XVjlX-55" style="edgeStyle=none;curved=1;rounded=0;orthogonalLoop=1;jettySize=auto;html=1;entryX=0.698;entryY=0.003;entryDx=0;entryDy=0;entryPerimeter=0;fontSize=12;startSize=8;endSize=8;startArrow=block;startFill=1;dashed=1;dashPattern=1 4;strokeWidth=2;" parent="1" source="qgATBkY-sKVrwg3XVjlX-9" target="qgATBkY-sKVrwg3XVjlX-37" edge="1"><mxGeometry relative="1" as="geometry"/></mxCell><mxCell id="qgATBkY-sKVrwg3XVjlX-56" style="edgeStyle=none;curved=1;rounded=0;orthogonalLoop=1;jettySize=auto;html=1;exitX=1;exitY=1;exitDx=0;exitDy=0;entryX=0.841;entryY=0.021;entryDx=0;entryDy=0;entryPerimeter=0;fontSize=12;startSize=8;endSize=8;startArrow=block;startFill=1;dashed=1;dashPattern=1 4;strokeWidth=2;" parent="1" source="qgATBkY-sKVrwg3XVjlX-6" target="qgATBkY-sKVrwg3XVjlX-37" edge="1"><mxGeometry relative="1" as="geometry"/></mxCell><mxCell id="qgATBkY-sKVrwg3XVjlX-57" style="edgeStyle=none;curved=1;rounded=0;orthogonalLoop=1;jettySize=auto;html=1;entryX=0.489;entryY=0.079;entryDx=0;entryDy=0;entryPerimeter=0;fontSize=12;startSize=8;endSize=8;startArrow=block;startFill=1;dashed=1;dashPattern=1 4;strokeWidth=2;" parent="1" source="qgATBkY-sKVrwg3XVjlX-8" target="qgATBkY-sKVrwg3XVjlX-37" edge="1"><mxGeometry relative="1" as="geometry"/></mxCell><mxCell id="qgATBkY-sKVrwg3XVjlX-58" style="edgeStyle=none;curved=1;rounded=0;orthogonalLoop=1;jettySize=auto;html=1;entryX=0.283;entryY=0.034;entryDx=0;entryDy=0;entryPerimeter=0;fontSize=12;startSize=8;endSize=8;startArrow=block;startFill=1;dashed=1;dashPattern=1 4;strokeWidth=2;" parent="1" source="qgATBkY-sKVrwg3XVjlX-7" target="qgATBkY-sKVrwg3XVjlX-37" edge="1"><mxGeometry relative="1" as="geometry"/></mxCell><mxCell id="qgATBkY-sKVrwg3XVjlX-59" style="edgeStyle=none;curved=1;rounded=0;orthogonalLoop=1;jettySize=auto;html=1;exitX=0;exitY=1;exitDx=0;exitDy=0;entryX=0.152;entryY=0.02;entryDx=0;entryDy=0;entryPerimeter=0;fontSize=12;startSize=8;endSize=8;startArrow=block;startFill=1;dashed=1;dashPattern=1 4;strokeWidth=2;" parent="1" source="qgATBkY-sKVrwg3XVjlX-5" target="qgATBkY-sKVrwg3XVjlX-37" edge="1"><mxGeometry relative="1" as="geometry"/></mxCell><mxCell id="19" style="edgeStyle=none;curved=1;rounded=0;orthogonalLoop=1;jettySize=auto;html=1;exitX=0;exitY=0.5;exitDx=0;exitDy=0;entryX=0.086;entryY=-0.089;entryDx=0;entryDy=0;entryPerimeter=0;fontSize=12;startSize=8;endSize=8;startArrow=block;startFill=1;dashed=1;dashPattern=1 4;strokeWidth=2;" parent="1" source="18" target="qgATBkY-sKVrwg3XVjlX-37" edge="1"><mxGeometry relative="1" as="geometry"><mxPoint x="507.19" y="313" as="sourcePoint"/><mxPoint x="453.0039999999994" y="501.5000000000002" as="targetPoint"/></mxGeometry></mxCell></root></mxGraphModel></diagram></mxfile>